# xmcd
#
# Track frame offsets: 
#        150
#        16669
#        32896
#        48500
#        63459
#        80547
#        94650
#        107784
#        120320
#        136670
#        149264
#        164329
#
# Disc length: 2339 seconds
#
# Revision: 0
# Processed by: cddbd v1.5.2PL0 Copyright (c) Steve Scherf et al.
# Submitted via: ExactAudioCopy v1.0b1
#
DISCID=9609210c
DTITLE=Anni Rossi - Heavy Meadow Bonus CD
DYEAR=2011
DGENRE=Indie
TTITLE0=Land Majestic (Demo)
TTITLE1=Texan Plains (Demo)
TTITLE2=Safety of Objects (Demo)
TTITLE3=Crushing Limbs (Demo)
TTITLE4=Prairie Shooter (Demo)
TTITLE5=Safety of Objects (Second Demo)
TTITLE6=Hatchet (Demo)
TTITLE7=Cha Cha Cha (Demo)
TTITLE8=Switchblade (Demo)
TTITLE9=Are You That Somebody
TTITLE10=Rude Boy
TTITLE11=These Arms of Mine
EXTD=
EXTT0=
EXTT1=
EXTT2=
EXTT3=
EXTT4=
EXTT5=
EXTT6=
EXTT7=
EXTT8=
EXTT9=
EXTT10=
EXTT11=
PLAYORDER=
